# generated from PmQm by Jehee Lee
:FULLY-SPECIFIED
:DEGREES
465
root 131.2530988 39.0155 -73.50417814 -2.774098025 17.79866958 -4.393205197
RightUpLeg 3.717469179 0.2844383639 12.84861609
RightLeg 14.09480735 0 0
RightFoot -21.49946383 36.61388962 -20.83970836
RightToes 2.32829e-010 -1.59028e-015 9.93923e-017
Spine -9.55206 4.83757 14.5931
Spine1 15.3412 5.80493 -6.97747
HEad -8.71883 -5.13068 1.30073
LeftShoulder1 9.93923e-017 0 1.22299e-017
LeftArm -0.365423 55.8509 -65.2931
LeftForeArm -9.19698 -8.25998 -4.8776
LeftHand 0.973909 6.82217 -5.55341
RightShoulder 1.98785e-016 -4.96962e-017 1.55301e-017
RightArm 19.5693 -20.2135 82.2798
RightForeArm -44.1874 29.9719 -26.7769
RightHand 1.14635 -10.1704 -6.21836
LeftUpLeg -24.33363812 -0.4225131634 3.646337192
LeftLeg 3.014902829 -5.742317773 0.3617738858
LeftFoot 7.739530097 3.241658956 -9.669068064
LeftToes 8.82235e-011 9.04645e-011 1.87288e-011
466
root 131.4799292 38.7936 -72.13688402 -1.688533365 15.44811645 -4.781756722
RightUpLeg 4.403484609 -0.2140638389 12.90098493
RightLeg 15.28268615 0 0
RightFoot -24.49900027 38.76620083 -23.27002088
RightToes 2.32829e-010 -1.59028e-015 9.93923e-017
Spine -11.2292 5.50976 16.0989
Spine1 16.0748 6.49691 -8.38122
HEad -8.96868 -5.25482 1.45882
LeftShoulder1 9.93923e-017 0 1.22299e-017
LeftArm -3.43556 55.6358 -64.3967
LeftForeArm -7.41591 -6.44362 -5.20002
LeftHand 1.00257 7.13443 -5.52391
RightShoulder 1.98785e-016 -4.96962e-017 1.55301e-017
RightArm 19.2962 -19.3455 82.2059
RightForeArm -44.2739 29.6849 -26.5628
RightHand 1.13498 -10.1113 -6.14149
LeftUpLeg -26.40295258 -0.4500958672 3.568220817
LeftLeg -0.6239692506 -3.45409087 0.09665416214
LeftFoot 4.822334304 2.363037344 -10.5504912
LeftToes 8.82235e-011 9.04645e-011 1.87288e-011
467
root 131.710663 38.606 -70.75669543 -0.7071611926 13.45556798 -4.679363514
RightUpLeg 4.8766193 -0.7871062055 12.14106515
RightLeg 17.32561865 0 0
RightFoot -26.62008608 40.93240806 -25.48047206
RightToes 2.32829e-010 -1.59028e-015 9.93923e-017
Spine -12.1546 5.85722 16.6885
Spine1 16.4674 7.00495 -9.47714
HEad -9.44381 -5.42776 1.65421
LeftShoulder1 9.93923e-017 0 1.22299e-017
LeftArm -6.6077 55.0293 -64.3725
LeftForeArm -5.50597 -4.71902 -5.34881
LeftHand 1.0012 7.1207 -5.41116
RightShoulder 1.98785e-016 -4.96962e-017 1.55301e-017
RightArm 19.1526 -19.652 82.4421
RightForeArm -44.4089 28.9425 -26.0225
RightHand 1.15452 -10.207 -6.29791
LeftUpLeg -27.85219764 -0.7488011981 3.041616729
LeftLeg -0.1727853633 -1.280561443 -0.1528563845
LeftFoot 2.394893617 1.743247464 -10.91130078
LeftToes 8.82235e-011 9.04645e-011 1.87288e-011
468
root 131.9539137 38.4781 -69.30014224 0.01779788435 11.25101022 -3.830300781
RightUpLeg 5.497389091 -1.725079067 10.119495
RightLeg 20.21376197 0 0
RightFoot -28.71347526 43.53666329 -28.5630066
RightToes 2.32829e-010 -1.59028e-015 9.93923e-017
Spine -12.4809 6.07 16.131
Spine1 16.6758 7.5605 -10.1947
HEad -9.91584 -5.61014 1.72987
LeftShoulder1 9.93923e-017 0 1.22299e-017
LeftArm -9.17442 54.3413 -65.0809
LeftForeArm -4.28792 -3.67452 -5.31467
LeftHand 0.976454 6.86272 -5.07199
RightShoulder 1.98785e-016 -4.96962e-017 1.55301e-017
RightArm 19.3593 -21.2995 82.9588
RightForeArm -44.8823 27.7921 -25.1879
RightHand 1.1632 -10.207 -6.55283
LeftUpLeg -28.85014343 -1.993072251 1.351868486
LeftLeg 2.102161624 0 0
LeftFoot 2.737564994 0.7798312111 -8.250246732
LeftToes 8.82235e-011 9.04645e-011 1.87288e-011
469
root 132.2123033 38.3992 -67.76664208 0.8112976271 8.123600508 -2.349036783
RightUpLeg 5.698416616 -3.467370172 6.514740228
RightLeg 24.18812626 0 0
RightFoot -31.50581773 47.19920832 -33.28116294
RightToes 2.32829e-010 -1.59028e-015 9.93923e-017
Spine -12.9619 6.48979 14.6785
Spine1 16.9032 8.37685 -10.7635
HEad -9.95357 -5.53207 1.71529
LeftShoulder1 9.93923e-017 0 1.22299e-017
LeftArm -10.4968 54.0093 -66.1619
LeftForeArm -4.69278 -3.83271 -5.16164
LeftHand 0.972732 6.82958 -4.8704
RightShoulder 1.98785e-016 -4.96962e-017 1.55301e-017
RightArm 21.128 -23.8806 83.8761
RightForeArm -46.265 25.967 -23.8724
RightHand 1.1413 -10.0446 -6.63461
LeftUpLeg -26.79654826 -2.747032342 0.667967194
LeftLeg 1.548547744 0 0
LeftFoot 7.647043787 2.640026722 -3.410490976
LeftToes 8.82235e-011 9.04645e-011 1.87288e-011
470
root 132.4648722 38.41137577 -66.44718971 1.281398895 6.339887176 -0.1997342987
RightUpLeg 4.142413364 -5.507456956 3.262625017
RightLeg 30.15327467 0 0
RightFoot -26.12634616 46.63275364 -39.09889858
RightToes 2.32829e-010 -1.59028e-015 9.93923e-017
Spine -12.66719625 5.540481784 10.99942851
Spine1 15.9615952 7.528856474 -10.68229244
HEad -9.20112049 -5.217998903 2.316593388
LeftShoulder1 9.93923e-017 0 1.22299e-017
LeftArm -11.70516909 52.82736869 -67.28620872
LeftForeArm -5.529452188 -3.703602121 -5.188081799
LeftHand 1.02661 7.3694 -4.41701
RightShoulder 1.98785e-016 -4.96962e-017 1.55301e-017
RightArm 25.11560053 -27.33790153 85.93115987
RightForeArm -48.41120236 24.4836114 -22.94891294
RightHand 1.19146 -10.4042 -6.50393
LeftUpLeg -25.24485996 -2.775047785 -0.821190209
LeftLeg 2.799491384 0 0
LeftFoot 9.336735756 4.118025154 -2.602965517
LeftToes 8.82235e-011 9.04645e-011 1.87288e-011
471
root 132.690291 38.40759866 -65.2395285 1.58867496 5.493401376 1.797199
RightUpLeg 0.4368421968 -6.0561354 0.8499020367
RightLeg 39.52593332 0 0
RightFoot -16.45090616 41.42713681 -46.42362385
RightToes 2.32829e-010 -1.59028e-015 9.93923e-017
Spine -10.80497685 3.879197811 6.711755758
Spine1 14.21047052 5.898573178 -10.27596106
HEad -9.356503806 -4.691262502 2.837931317
LeftShoulder1 9.93923e-017 0 1.22299e-017
LeftArm -11.25042111 49.76714594 -68.94589826
LeftForeArm -6.340785174 -3.82537775 -5.561190529
LeftHand 1.0097 7.20765 -5.05441
RightShoulder 1.98785e-016 -4.96962e-017 1.55301e-017
RightArm 28.6562778 -30.59627422 88.18877302
RightForeArm -51.86194915 22.11632745 -20.82756746
RightHand 1.16096 -10.3732 -5.78301
LeftUpLeg -25.69646974 -2.552967839 -1.837693045
LeftLeg 9.560830896 0 0
LeftFoot 5.655954609 3.252823282 -2.28548591
LeftToes 8.82235e-011 9.04645e-011 1.87288e-011
472
root 132.8898183 38.40860858 -64.11056967 1.692288579 4.150820482 3.365506448
RightUpLeg -4.310948758 -4.347431186 -1.324314226
RightLeg 49.36584115 -2.790575789 -5.613108782
RightFoot -1.91183369 47.91842087 -32.31432267
RightToes 2.32829e-010 -1.59028e-015 9.93923e-017
Spine -8.615737823 2.739157942 2.825787768
Spine1 13.05120699 4.637527439 -9.763503017
HEad -10.24917151 -4.023258346 2.809232198
LeftShoulder1 9.93923e-017 0 1.22299e-017
LeftArm -9.244655508 44.94620471 -71.2246392
LeftForeArm -7.754399472 -4.268921786 -6.17987125
LeftHand 0.992905 7.03592 -5.03757
RightShoulder 1.98785e-016 -4.96962e-017 1.55301e-017
RightArm 26.74857932 -33.49647376 89.80611261
RightForeArm -50.5587284 20.74354785 -16.03337121
RightHand 1.09086 -10.2491 -4.27313
LeftUpLeg -25.73553154 -2.456056412 -2.095555579
LeftLeg 16.1390778 0 0
LeftFoot 1.33453294 2.730012174 -2.309174235
LeftToes 8.82235e-011 9.04645e-011 1.87288e-011
